<?xml version="1.0" encoding="UTF-8" standalone="no"?>
<!DOCTYPE svg PUBLIC "-//W3C//DTD SVG 1.1//EN" "http://www.w3.org/Graphics/SVG/1.1/DTD/svg11.dtd">
<svg width="100%" height="100%" viewBox="0 0 64 64" version="1.1" xmlns="http://www.w3.org/2000/svg"
     xml:space="preserve"
     style="fill-rule:evenodd;clip-rule:evenodd;stroke-linejoin:round;stroke-miterlimit:2;">
    <g id="Background" transform="matrix(1,0,0,1,57.92,53.99)">
        <path
            d="M-25.92,8L-25.921,8.002C-28.709,6.731 -32.578,4.435 -36.483,1.124C-38.666,-0.726 -43.427,-4.841 -46.958,-11.78C-50.315,-18.376 -50.884,-24.223 -51.478,-30.337C-51.709,-32.669 -51.801,-34.811 -51.822,-36.723C-51.837,-38.337 -51.801,-39.788 -51.74,-41.043C-51.719,-41.392 -51.463,-41.679 -51.12,-41.74C-47.122,-42.432 -42.3,-43.621 -37.057,-45.691C-32.66,-47.429 -28.944,-49.408 -25.921,-51.263C-23.728,-49.915 -20.84,-48.328 -17.92,-46.99L-17.92,-40.99L-13.92,-40.99L-13.92,-44.99C-12.322,-44.451 -10.428,-43.99 -8.92,-43.683L-8.92,-36.99L-4.92,-36.99L-4.91,-42.6C-3.43,-42.25 -2.02,-41.97 -0.7,-41.74C-0.36,-41.68 -0.1,-41.39 -0.08,-41.04C-0.02,-39.86 0.02,-38.5 0,-36.99L0,-36.58C-0.02,-35.19 -0.08,-33.67 -0.2,-32.04L-0.2,-31.97C-0.24,-31.44 -0.29,-30.9 -0.34,-30.34C-0.88,-24.87 -1.38,-19.63 -3.88,-13.87C-3.93,-13.75 -3.98,-13.64 -4.03,-13.52C-4.29,-12.95 -4.57,-12.37 -4.86,-11.78C-5.38,-10.77 -5.92,-9.81 -6.48,-8.91C-7.14,-7.85 -7.82,-6.88 -8.5,-5.98C-8.95,-5.38 -9.4,-4.83 -9.84,-4.3C-11,-2.92 -12.12,-1.78 -13.11,-0.85C-13.57,-0.42 -14.01,-0.03 -14.39,0.31C-14.74,0.62 -15.06,0.89 -15.34,1.12C-16.14,1.81 -16.94,2.43 -17.72,3C-18.68,3.72 -19.63,4.36 -20.54,4.93C-22.5,6.16 -24.41,7.31 -25.92,8Z"
            style="fill:#fff;"/>
        <path
            d="M0.8,-32.003L0.8,-31.972L0.797,-31.969L0.797,-31.967L0.765,-31.937L-0.2,-30.97L0.797,-31.895C0.757,-31.36 0.706,-30.816 0.656,-30.246L0.655,-30.242C0.105,-24.673 -0.416,-19.341 -2.96,-13.477C-3.009,-13.36 -3.058,-13.253 -3.113,-13.12L-3.12,-13.105C-3.384,-12.526 -3.668,-11.938 -3.967,-11.331L-3.971,-11.322C-4.504,-10.287 -5.057,-9.304 -5.631,-8.382C-6.307,-7.295 -7.004,-6.301 -7.701,-5.379C-8.161,-4.765 -8.621,-4.203 -9.073,-3.659L-9.075,-3.657C-10.263,-2.242 -11.411,-1.074 -12.427,-0.12C-12.892,0.316 -13.338,0.711 -13.725,1.057L-13.727,1.059C-14.083,1.374 -14.41,1.65 -14.696,1.885C-15.512,2.589 -16.329,3.222 -17.125,3.804C-18.107,4.54 -19.078,5.194 -20.009,5.777C-21.959,7.001 -23.862,8.145 -25.385,8.854C-25.286,8.79 -25.186,8.698 -25.096,8.567L-25.92,9L-25.921,9.002L-25.973,9.077L-26.336,8.912C-29.185,7.613 -33.14,5.269 -37.13,1.886C-39.365,-0.008 -44.235,-4.223 -47.849,-11.327C-51.272,-18.051 -51.868,-24.008 -52.473,-30.24C-52.707,-32.604 -52.801,-34.775 -52.822,-36.714C-52.837,-38.349 -52.801,-39.82 -52.739,-41.098L-52.605,-41.678L-52.298,-42.165L-51.85,-42.526L-51.293,-42.725L-51.291,-42.726C-47.349,-43.408 -42.594,-44.58 -37.424,-46.621C-33.089,-48.335 -29.425,-50.286 -26.444,-52.115L-25.921,-52.436L-25.397,-52.115C-23.234,-50.785 -20.385,-49.219 -17.504,-47.899L-16.92,-47.632L-16.92,-41.99L-14.92,-41.99L-14.92,-46.383L-13.6,-45.938C-12.041,-45.412 -10.192,-44.963 -8.721,-44.663L-7.92,-44.5L-7.92,-37.99L-5.918,-37.99L-5.908,-43.864L-4.68,-43.573C-3.22,-43.228 -1.83,-42.952 -0.527,-42.725L-0.236,-42.647L0.031,-42.524L0.477,-42.163L0.784,-41.676L0.875,-41.395L0.919,-41.094L0.919,-41.091C0.98,-39.893 1.02,-38.512 1,-36.978L1,-36.589L0,-35.58L1,-36.566C0.98,-35.168 0.92,-33.641 0.8,-32.003ZM-26.825,7.572C-27.237,8.415 -25.974,8.977 -25.922,9C-25.938,8.956 -26.209,8.212 -26.443,7.758C-26.265,7.843 -26.091,7.924 -25.921,8.002L-25.92,8C-24.41,7.31 -22.5,6.16 -20.54,4.93C-19.63,4.36 -18.68,3.72 -17.72,3C-16.94,2.43 -16.14,1.81 -15.34,1.12C-15.06,0.89 -14.74,0.62 -14.39,0.31C-14.01,-0.03 -13.57,-0.42 -13.11,-0.85C-12.12,-1.78 -11,-2.92 -9.84,-4.3C-9.4,-4.83 -8.95,-5.38 -8.5,-5.98C-7.82,-6.88 -7.14,-7.85 -6.48,-8.91C-5.92,-9.81 -5.38,-10.77 -4.86,-11.78C-4.57,-12.37 -4.29,-12.95 -4.03,-13.52C-3.98,-13.64 -3.93,-13.75 -3.88,-13.87C-1.38,-19.63 -0.88,-24.87 -0.34,-30.34C-0.317,-30.601 -0.293,-30.858 -0.271,-31.111L-0.2,-31.04L-0.271,-31.116C-0.245,-31.405 -0.221,-31.689 -0.2,-31.97L-0.2,-32.04C-0.096,-33.446 -0.038,-34.771 -0.011,-36.001C-0.006,-36.196 -0.003,-36.389 0,-36.58L0,-36.99C0.02,-38.5 -0.02,-39.86 -0.08,-41.04C-0.1,-41.39 -0.36,-41.68 -0.7,-41.74C-2.02,-41.97 -3.43,-42.25 -4.91,-42.6L-4.92,-36.99L-8.92,-36.99L-8.92,-43.683C-10.428,-43.99 -12.322,-44.451 -13.92,-44.99L-13.92,-40.99L-17.92,-40.99L-17.92,-46.99C-20.84,-48.328 -23.728,-49.915 -25.921,-51.263C-28.944,-49.408 -32.66,-47.429 -37.057,-45.691C-42.3,-43.621 -47.122,-42.432 -51.12,-41.74C-51.463,-41.679 -51.719,-41.392 -51.74,-41.043C-51.801,-39.788 -51.837,-38.337 -51.822,-36.723C-51.801,-34.811 -51.709,-32.669 -51.478,-30.337C-50.884,-24.223 -50.315,-18.376 -46.958,-11.78C-43.427,-4.841 -38.666,-0.726 -36.483,1.124C-32.984,4.09 -29.515,6.242 -26.825,7.572Z"
            style="fill:#fff;"/>
    </g>
    <g id="Icon">
        <g transform="matrix(1,0,0,1,34,29)">
            <path
                d="M0,9L-4,9L-3.19,4.53C-4.09,4.1 -4.65,3.2 -4.65,2.14C-4.65,0.66 -3.5,-0.56 -2.03,-0.56C-0.55,-0.56 0.65,0.64 0.65,2.12C0.65,3.16 0.06,4.06 -0.81,4.5L0,9ZM7.39,-4L-11.36,-4C-12.24,-4 -12.99,-3.26 -12.99,-2.38L-13,-2L-13,13L9,13L9,-2L8.99,-2.47C8.99,-3.35 8.27,-4 7.39,-4"
                style="fill:#012c47;fill-rule:nonzero;"/>
        </g>
        <g transform="matrix(1,0,0,1,39,18.0257)">
            <path
                d="M0,4.32L0,6.974L-3,6.974L-3,3.974C-3,1.808 -4.828,0.428 -6.984,0.428C-9.141,0.428 -11,1.808 -11,3.974L-11,6.974L-14,6.974L-13.99,4.32C-13.99,0.47 -10.834,-2.654 -6.984,-2.654C-5.059,-2.654 -3.313,-1.875 -2.051,-0.613C-0.789,0.649 0,2.395 0,4.32"
                style="fill:#012c47;fill-rule:nonzero;"/>
        </g>
        <g transform="matrix(0,1,1,0,41.1358,3.8631)">
            <path
                d="M-1.136,-9.137L5.097,-9.137C6.48,-6.651 8.041,-3.755 9.137,-1.136L3.137,-1.136C1.799,-4.056 0.212,-6.944 -1.136,-9.137"
                style="fill:#30a1cb;fill-rule:nonzero;"/>
        </g>
        <g transform="matrix(1,0,0,1,57.92,53.99)">
            <path
                d="M0,-36.99L0,-36.58C-0.02,-35.19 -0.08,-33.67 -0.2,-32.04L-0.2,-31.97C-0.24,-31.44 -0.29,-30.9 -0.34,-30.34C-0.88,-24.87 -1.38,-19.63 -3.88,-13.87C-3.93,-13.75 -3.98,-13.64 -4.03,-13.52C-4.29,-12.95 -4.57,-12.37 -4.86,-11.78C-5.38,-10.77 -5.92,-9.81 -6.48,-8.91C-7.14,-7.85 -7.82,-6.88 -8.5,-5.98C-8.95,-5.38 -9.4,-4.83 -9.84,-4.3C-11,-2.92 -12.12,-1.78 -13.11,-0.85C-13.57,-0.42 -14.01,-0.03 -14.39,0.31C-14.74,0.62 -15.06,0.89 -15.34,1.12C-16.14,1.81 -16.94,2.43 -17.72,3C-18.68,3.72 -19.63,4.36 -20.54,4.93C-22.5,6.16 -24.41,7.31 -25.92,8L-25.92,1.01L-20.92,1.01L-20.92,-2.99L-17.92,-2.99L-17.92,-8.99L-11.92,-8.99L-11.92,-12.99L-7.92,-12.99L-7.92,-32.99L-12.92,-32.99L-12.92,-36.99L-17.92,-36.99L-17.92,-40.99L-13.92,-40.99L-13.92,-44.99C-12.322,-44.451 -10.428,-43.99 -8.92,-43.683L-8.92,-36.99L-4.92,-36.99L-4.91,-42.6C-3.43,-42.25 -2.02,-41.97 -0.7,-41.74C-0.36,-41.68 -0.1,-41.39 -0.08,-41.04C-0.02,-39.86 0.02,-38.5 0,-36.99"
                style="fill:#30a1cb;fill-rule:nonzero;"/>
        </g>
        <g transform="matrix(-0.8,0,0,0.800801,64.4,32.9872)">
            <rect x="33" y="15.001" width="5" height="4.995" style="fill:#30a1cb;"/>
        </g>
        <g transform="matrix(1,0,0,1,15.0049,48.4286)">
            <path
                d="M0,-32.138L-0.003,-29.433L3.994,-29.429L3.995,-33.429C4.601,-33.711 5.464,-34.155 5.995,-34.429L5.995,-32.429L9.995,-32.429L9.995,-36.429C12.424,-37.582 14.909,-38.554 16.994,-39.469L16.994,-45.701C13.971,-43.846 10.255,-41.868 5.858,-40.13C0.615,-38.06 -4.207,-36.871 -8.205,-36.179C-8.548,-36.118 -8.804,-35.831 -8.825,-35.482C-8.886,-34.227 -8.922,-32.776 -8.907,-31.162C-8.886,-29.25 -8.794,-27.108 -8.563,-24.776C-7.969,-18.662 -7.4,-12.815 -4.043,-6.219C-0.512,0.72 4.249,4.835 6.432,6.685C10.337,9.996 14.206,12.292 16.994,13.563L16.994,6.571L11.995,6.571L11.995,1.571L6.995,1.571L6.995,-3.429L2.995,-3.429L2.995,-8.429L-1.005,-8.429L-1.005,-14.429L-4.005,-14.429L-4.005,-21.429L1.995,-21.429L1.995,-26.429L-3.024,-26.423L-3.017,-31.31L0,-32.138Z"
                style="fill:#012c47;fill-rule:nonzero;"/>
        </g>
        <g transform="matrix(-1,0,0,1,32,-1)">
            <rect x="14" y="30" width="5" height="5" style="fill:#012c47;"/>
        </g>
        <g transform="matrix(1,0,0,1,57.92,22)">
            <path d="M0,-5L0,-4.59C-0.02,-3.2 -0.08,-1.68 -0.2,-0.05L-0.2,0L-4.92,0L-4.92,-5L0,-5Z"
                  style="fill:#76cde2;fill-rule:nonzero;"/>
        </g>
        <g transform="matrix(-1,0,0,1,58.999,41)">
            <rect x="27" y="9" width="4.999" height="5" style="fill:#30a1cb;"/>
        </g>
        <g transform="matrix(-1,0,0,1,49,31)">
            <rect x="22" y="14" width="5" height="5" style="fill:#30a1cb;"/>
        </g>
        <g transform="matrix(-0.8,0,0,1,94,-6)">
            <rect x="50" y="33" width="5" height="5" style="fill:#76cde2;"/>
        </g>
        <g transform="matrix(-0.8,0,0,1,86,-6)">
            <rect x="45" y="33" width="5" height="5" style="fill:#30a1cb;"/>
        </g>
        <g transform="matrix(-0.8,0,0,0.8,86,18.6)">
            <rect x="45" y="23" width="5" height="5" style="fill:#76cde2;"/>
        </g>
        <g transform="matrix(1,0,0,1,0,15)">
            <rect x="21" y="22" width="5" height="5" style="fill:#30a1cb;"/>
        </g>
        <g transform="matrix(1,0,0,1,0,4)">
            <rect x="38" y="28" width="5" height="5" style="fill:#30a1cb;"/>
        </g>
    </g>
</svg>
