<?xml version="1.0" encoding="UTF-8" standalone="no"?>
<!DOCTYPE svg PUBLIC "-//W3C//DTD SVG 1.1//EN" "http://www.w3.org/Graphics/SVG/1.1/DTD/svg11.dtd">
<svg width="100%" height="100%" viewBox="0 0 64 64" version="1.1" xmlns="http://www.w3.org/2000/svg"
     xml:space="preserve" xmlns:serif="http://www.serif.com/"
     style="fill-rule:evenodd;clip-rule:evenodd;stroke-linejoin:round;stroke-miterlimit:2;">
    <g id="Layer-1" serif:id="Layer 1">
        <g transform="matrix(1,0,0,1,34,29)">
            <path
                d="M0,9L-4,9L-3.19,4.53C-4.09,4.1 -4.65,3.2 -4.65,2.14C-4.65,0.66 -3.5,-0.56 -2.03,-0.56C-0.55,-0.56 0.65,0.64 0.65,2.12C0.65,3.16 0.06,4.06 -0.81,4.5L0,9ZM7.39,-4L-11.36,-4C-12.24,-4 -12.99,-3.26 -12.99,-2.38L-13,-2L-13,13L9,13L9,-2L8.99,-2.47C8.99,-3.35 8.27,-4 7.39,-4"
                style="fill:rgb(1,44,71);fill-rule:nonzero;"/>
        </g>
        <g transform="matrix(1,0,0,1,39,18.0257)">
            <path
                d="M0,4.32L0,6.974L-3,6.974L-3,3.974C-3,1.808 -4.828,0.428 -6.984,0.428C-9.141,0.428 -11,1.808 -11,3.974L-11,6.974L-14,6.974L-13.99,4.32C-13.99,0.47 -10.834,-2.654 -6.984,-2.654C-5.059,-2.654 -3.313,-1.875 -2.051,-0.613C-0.789,0.649 0,2.395 0,4.32"
                style="fill:rgb(1,44,71);fill-rule:nonzero;"/>
        </g>
        <g transform="matrix(0,1,1,0,41.1358,3.8631)">
            <path
                d="M-1.136,-9.137L5.097,-9.137C6.48,-6.651 8.041,-3.755 9.137,-1.136L3.137,-1.136C1.799,-4.056 0.212,-6.944 -1.136,-9.137"
                style="fill:rgb(48,161,203);fill-rule:nonzero;"/>
        </g>
        <g transform="matrix(1,0,0,1,57.92,53.99)">
            <path
                d="M0,-36.99L0,-36.58C-0.02,-35.19 -0.08,-33.67 -0.2,-32.04L-0.2,-31.97C-0.24,-31.44 -0.29,-30.9 -0.34,-30.34C-0.88,-24.87 -1.38,-19.63 -3.88,-13.87C-3.93,-13.75 -3.98,-13.64 -4.03,-13.52C-4.29,-12.95 -4.57,-12.37 -4.86,-11.78C-5.38,-10.77 -5.92,-9.81 -6.48,-8.91C-7.14,-7.85 -7.82,-6.88 -8.5,-5.98C-8.95,-5.38 -9.4,-4.83 -9.84,-4.3C-11,-2.92 -12.12,-1.78 -13.11,-0.85C-13.57,-0.42 -14.01,-0.03 -14.39,0.31C-14.74,0.62 -15.06,0.89 -15.34,1.12C-16.14,1.81 -16.94,2.43 -17.72,3C-18.68,3.72 -19.63,4.36 -20.54,4.93C-22.5,6.16 -24.41,7.31 -25.92,8L-25.92,1.01L-20.92,1.01L-20.92,-2.99L-17.92,-2.99L-17.92,-8.99L-12.92,-8.99L-12.92,-12.99L-7.92,-12.99L-7.92,-32.99L-12.92,-32.99L-12.92,-36.99L-17.92,-36.99L-17.92,-40.99L-13.92,-40.99L-13.92,-44.99C-12.322,-44.451 -10.428,-43.99 -8.92,-43.683L-8.92,-36.99L-4.92,-36.99L-4.91,-42.6C-3.43,-42.25 -2.02,-41.97 -0.7,-41.74C-0.36,-41.68 -0.1,-41.39 -0.08,-41.04C-0.02,-39.86 0.02,-38.5 0,-36.99"
                style="fill:rgb(48,161,203);fill-rule:nonzero;"/>
        </g>
        <g transform="matrix(-1,0,0,1,71,29.003)">
            <rect x="33" y="15.001" width="5" height="4.995" style="fill:rgb(48,161,203);"/>
        </g>
        <g transform="matrix(1,0,0,1,15.0049,48.4286)">
            <path
                d="M0,-32.138L-0.003,-29.433L3.994,-29.429L3.995,-33.429C4.601,-33.711 5.464,-34.155 5.995,-34.429L5.995,-31.429L9.995,-31.429L9.995,-36.429C12.424,-37.582 14.909,-38.554 16.994,-39.469L16.994,-45.701C13.971,-43.846 10.255,-41.868 5.858,-40.13C0.615,-38.06 -4.207,-36.871 -8.205,-36.179C-8.548,-36.118 -8.804,-35.831 -8.825,-35.482C-8.886,-34.227 -8.922,-32.776 -8.907,-31.162C-8.886,-29.25 -8.794,-27.108 -8.563,-24.776C-7.969,-18.662 -7.4,-12.815 -4.043,-6.219C-0.512,0.72 4.249,4.835 6.432,6.685C10.337,9.996 14.206,12.292 16.994,13.563L16.994,6.571L11.995,6.571L11.995,1.571L6.995,1.571L6.995,-3.429L3.995,-3.429L3.995,-9.429L-1.005,-9.429L-1.005,-14.429L-3.005,-14.429L-3.005,-21.429L0.995,-21.429L0.995,-26.429L-3.024,-26.423L-3.017,-31.31L0,-32.138Z"
                style="fill:rgb(1,44,71);fill-rule:nonzero;"/>
        </g>
        <g transform="matrix(-1,0,0,1,33,-1)">
            <rect x="14" y="30" width="5" height="5" style="fill:rgb(1,44,71);"/>
        </g>
        <g transform="matrix(1,0,0,1,57.92,22)">
            <path d="M0,-5L0,-4.59C-0.02,-3.2 -0.08,-1.68 -0.2,-0.05L-0.2,0L-4.92,0L-4.92,-5L0,-5Z"
                  style="fill:rgb(118,205,226);fill-rule:nonzero;"/>
        </g>
        <g transform="matrix(-1,0,0,1,58.999,41)">
            <rect x="27" y="9" width="4.999" height="5" style="fill:rgb(48,161,203);"/>
        </g>
        <g transform="matrix(-1,0,0,1,49,31)">
            <rect x="22" y="14" width="5" height="5" style="fill:rgb(48,161,203);"/>
        </g>
        <g transform="matrix(-1,0,0,1,105,-7)">
            <rect x="50" y="33" width="5" height="5" style="fill:rgb(118,205,226);"/>
        </g>
        <g transform="matrix(-1,0,0,1,95,-7)">
            <rect x="45" y="33" width="5" height="5" style="fill:rgb(48,161,203);"/>
        </g>
        <g transform="matrix(-1,0,0,1,95,13)">
            <rect x="45" y="23" width="5" height="5" style="fill:rgb(118,205,226);"/>
        </g>
        <g transform="matrix(1,0,0,1,0,15)">
            <rect x="21" y="22" width="5" height="5" style="fill:rgb(48,161,203);"/>
        </g>
        <g transform="matrix(1,0,0,1,0,3)">
            <rect x="38" y="28" width="5" height="5" style="fill:rgb(48,161,203);"/>
        </g>
    </g>
</svg>
