<?xml version="1.0" encoding="UTF-8" standalone="no"?>
<!DOCTYPE svg PUBLIC "-//W3C//DTD SVG 1.1//EN" "http://www.w3.org/Graphics/SVG/1.1/DTD/svg11.dtd">
<svg width="100%" height="100%" viewBox="0 0 256 64" version="1.1" xmlns="http://www.w3.org/2000/svg" xmlns:xlink="http://www.w3.org/1999/xlink" xml:space="preserve" xmlns:serif="http://www.serif.com/" style="fill-rule:evenodd;clip-rule:evenodd;stroke-linejoin:round;stroke-miterlimit:2;">
    <g id="Background" transform="matrix(0.5,0,0,0.5,0,0)">
        <rect x="0" y="0" width="512" height="128" style="fill:white;"/>
    </g>
    <g id="Logo">
        <g transform="matrix(0.5,0,0,0.5,-1.17817,14.6915)">
            <g transform="matrix(83.3333,0,0,83.3333,147.48,65.8873)">
                <path d="M0.176,-0.278L0.176,-0L0.083,-0L0.083,-0.711L0.345,-0.711C0.423,-0.711 0.483,-0.691 0.528,-0.651C0.572,-0.612 0.594,-0.559 0.594,-0.494C0.594,-0.425 0.572,-0.372 0.529,-0.334C0.486,-0.297 0.424,-0.278 0.344,-0.278L0.176,-0.278ZM0.176,-0.355L0.345,-0.355C0.395,-0.355 0.433,-0.367 0.46,-0.39C0.487,-0.414 0.5,-0.448 0.5,-0.493C0.5,-0.535 0.487,-0.569 0.46,-0.594C0.433,-0.62 0.397,-0.633 0.35,-0.634L0.176,-0.634L0.176,-0.355Z" style="fill-rule:nonzero;"/>
            </g>
            <g transform="matrix(83.3333,0,0,83.3333,200.051,65.8873)">
                <path d="M0.167,-0L0.076,-0L0.076,-0.528L0.167,-0.528L0.167,-0ZM0.069,-0.668C0.069,-0.683 0.073,-0.695 0.082,-0.706C0.091,-0.716 0.104,-0.721 0.122,-0.721C0.14,-0.721 0.153,-0.716 0.162,-0.706C0.171,-0.695 0.176,-0.683 0.176,-0.668C0.176,-0.654 0.171,-0.642 0.162,-0.632C0.153,-0.622 0.14,-0.617 0.122,-0.617C0.104,-0.617 0.091,-0.622 0.082,-0.632C0.073,-0.642 0.069,-0.654 0.069,-0.668Z" style="fill-rule:nonzero;"/>
            </g>
            <g transform="matrix(83.3333,0,0,83.3333,220.274,65.8873)">
                <path d="M0.246,-0.335L0.363,-0.528L0.468,-0.528L0.295,-0.267L0.474,-0L0.369,-0L0.247,-0.198L0.125,-0L0.02,-0L0.198,-0.267L0.025,-0.528L0.13,-0.528L0.246,-0.335Z" style="fill-rule:nonzero;"/>
            </g>
            <g transform="matrix(83.3333,0,0,83.3333,260.761,65.8873)">
                <path d="M0.288,0.01C0.216,0.01 0.158,-0.014 0.113,-0.061C0.068,-0.108 0.045,-0.171 0.045,-0.25L0.045,-0.266C0.045,-0.319 0.055,-0.365 0.075,-0.406C0.095,-0.448 0.123,-0.48 0.159,-0.503C0.195,-0.526 0.234,-0.538 0.276,-0.538C0.345,-0.538 0.398,-0.515 0.437,-0.47C0.475,-0.425 0.494,-0.36 0.494,-0.276L0.494,-0.238L0.136,-0.238C0.137,-0.186 0.152,-0.144 0.181,-0.112C0.211,-0.08 0.248,-0.064 0.292,-0.064C0.324,-0.064 0.351,-0.07 0.374,-0.083C0.396,-0.097 0.415,-0.114 0.432,-0.135L0.487,-0.092C0.443,-0.024 0.376,0.01 0.288,0.01ZM0.276,-0.464C0.24,-0.464 0.209,-0.451 0.185,-0.424C0.16,-0.398 0.145,-0.36 0.139,-0.313L0.403,-0.313L0.403,-0.319C0.401,-0.365 0.388,-0.401 0.366,-0.426C0.344,-0.451 0.314,-0.464 0.276,-0.464Z" style="fill-rule:nonzero;"/>
            </g>
            <g transform="matrix(83.3333,0,0,83.3333,304.91,65.8873)">
                <rect x="0.076" y="-0.75" width="0.09" height="0.75"/>
            </g>
            <g transform="matrix(83.3333,0,0,83.3333,325.133,65.8873)">
                <path d="M0.292,-0.317C0.212,-0.34 0.153,-0.368 0.116,-0.402C0.08,-0.436 0.062,-0.477 0.062,-0.527C0.062,-0.583 0.084,-0.629 0.129,-0.666C0.173,-0.702 0.232,-0.721 0.303,-0.721C0.352,-0.721 0.396,-0.711 0.434,-0.692C0.472,-0.674 0.502,-0.647 0.523,-0.614C0.544,-0.581 0.554,-0.545 0.554,-0.505L0.46,-0.505C0.46,-0.548 0.446,-0.582 0.419,-0.607C0.392,-0.631 0.353,-0.644 0.303,-0.644C0.257,-0.644 0.221,-0.633 0.195,-0.613C0.169,-0.593 0.156,-0.564 0.156,-0.528C0.156,-0.499 0.169,-0.475 0.193,-0.455C0.218,-0.435 0.26,-0.417 0.319,-0.4C0.378,-0.383 0.424,-0.365 0.457,-0.345C0.491,-0.325 0.515,-0.302 0.531,-0.275C0.548,-0.248 0.556,-0.217 0.556,-0.181C0.556,-0.123 0.533,-0.077 0.488,-0.042C0.443,-0.008 0.383,0.01 0.308,0.01C0.259,0.01 0.214,0 0.171,-0.018C0.129,-0.037 0.096,-0.063 0.073,-0.095C0.051,-0.128 0.039,-0.165 0.039,-0.206L0.133,-0.206C0.133,-0.163 0.149,-0.129 0.181,-0.104C0.213,-0.079 0.255,-0.067 0.308,-0.067C0.358,-0.067 0.396,-0.077 0.422,-0.097C0.448,-0.117 0.461,-0.145 0.461,-0.18C0.461,-0.215 0.449,-0.241 0.425,-0.26C0.4,-0.28 0.356,-0.298 0.292,-0.317Z" style="fill-rule:nonzero;"/>
            </g>
            <g transform="matrix(83.3333,0,0,83.3333,374.571,65.8873)">
                <path d="M0.395,-0C0.389,-0.01 0.385,-0.029 0.382,-0.056C0.34,-0.012 0.29,0.01 0.231,0.01C0.179,0.01 0.137,-0.005 0.103,-0.034C0.07,-0.064 0.053,-0.101 0.053,-0.146C0.053,-0.201 0.074,-0.244 0.116,-0.275C0.158,-0.305 0.217,-0.32 0.292,-0.32L0.38,-0.32L0.38,-0.362C0.38,-0.393 0.371,-0.419 0.352,-0.437C0.333,-0.456 0.305,-0.465 0.269,-0.465C0.236,-0.465 0.209,-0.457 0.188,-0.441C0.166,-0.425 0.155,-0.405 0.155,-0.382L0.064,-0.382C0.064,-0.408 0.073,-0.434 0.092,-0.458C0.111,-0.483 0.136,-0.502 0.168,-0.517C0.2,-0.531 0.236,-0.538 0.274,-0.538C0.335,-0.538 0.382,-0.523 0.417,-0.492C0.451,-0.462 0.469,-0.42 0.471,-0.367L0.471,-0.124C0.471,-0.075 0.477,-0.036 0.489,-0.008L0.489,-0L0.395,-0ZM0.245,-0.069C0.273,-0.069 0.3,-0.076 0.325,-0.091C0.351,-0.105 0.369,-0.125 0.38,-0.148L0.38,-0.256L0.31,-0.256C0.199,-0.256 0.144,-0.224 0.144,-0.159C0.144,-0.131 0.153,-0.109 0.172,-0.093C0.191,-0.077 0.215,-0.069 0.245,-0.069Z" style="fill-rule:nonzero;"/>
            </g>
            <g transform="matrix(83.3333,0,0,83.3333,419.9,65.8873)">
                <path d="M0.113,-0L0.113,-0.458L0.029,-0.458L0.029,-0.528L0.113,-0.528L0.113,-0.583C0.113,-0.639 0.128,-0.683 0.158,-0.714C0.188,-0.745 0.231,-0.76 0.287,-0.76C0.307,-0.76 0.328,-0.757 0.349,-0.752L0.344,-0.679C0.328,-0.682 0.312,-0.683 0.295,-0.683C0.266,-0.683 0.243,-0.675 0.227,-0.657C0.211,-0.64 0.203,-0.616 0.203,-0.584L0.203,-0.528L0.316,-0.528L0.316,-0.458L0.203,-0.458L0.203,-0L0.113,-0Z" style="fill-rule:nonzero;"/>
            </g>
            <g transform="matrix(83.3333,0,0,83.3333,447.854,65.8873)">
                <path d="M0.288,0.01C0.216,0.01 0.158,-0.014 0.113,-0.061C0.068,-0.108 0.045,-0.171 0.045,-0.25L0.045,-0.266C0.045,-0.319 0.055,-0.365 0.075,-0.406C0.095,-0.448 0.123,-0.48 0.159,-0.503C0.195,-0.526 0.234,-0.538 0.276,-0.538C0.345,-0.538 0.398,-0.515 0.437,-0.47C0.475,-0.425 0.494,-0.36 0.494,-0.276L0.494,-0.238L0.136,-0.238C0.137,-0.186 0.152,-0.144 0.181,-0.112C0.211,-0.08 0.248,-0.064 0.292,-0.064C0.324,-0.064 0.351,-0.07 0.374,-0.083C0.396,-0.097 0.415,-0.114 0.432,-0.135L0.487,-0.092C0.443,-0.024 0.376,0.01 0.288,0.01ZM0.276,-0.464C0.24,-0.464 0.209,-0.451 0.185,-0.424C0.16,-0.398 0.145,-0.36 0.139,-0.313L0.403,-0.313L0.403,-0.319C0.401,-0.365 0.388,-0.401 0.366,-0.426C0.344,-0.451 0.314,-0.464 0.276,-0.464Z" style="fill-rule:nonzero;"/>
            </g>
        </g>
        <g id="Icon" transform="matrix(1,0,0,1,3,0)">
            <g transform="matrix(1,0,0,1,34,29)">
                <path d="M0,9L-4,9L-3.19,4.53C-4.09,4.1 -4.65,3.2 -4.65,2.14C-4.65,0.66 -3.5,-0.56 -2.03,-0.56C-0.55,-0.56 0.65,0.64 0.65,2.12C0.65,3.16 0.06,4.06 -0.81,4.5L0,9ZM7.39,-4L-11.36,-4C-12.24,-4 -12.99,-3.26 -12.99,-2.38L-13,-2L-13,13L9,13L9,-2L8.99,-2.47C8.99,-3.35 8.27,-4 7.39,-4" style="fill:rgb(1,44,71);fill-rule:nonzero;"/>
            </g>
            <g transform="matrix(1,0,0,1,39,18.0257)">
                <path d="M0,4.32L0,6.974L-3,6.974L-3,3.974C-3,1.808 -4.828,0.428 -6.984,0.428C-9.141,0.428 -11,1.808 -11,3.974L-11,6.974L-14,6.974L-13.99,4.32C-13.99,0.47 -10.834,-2.654 -6.984,-2.654C-5.059,-2.654 -3.313,-1.875 -2.051,-0.613C-0.789,0.649 0,2.395 0,4.32" style="fill:rgb(1,44,71);fill-rule:nonzero;"/>
            </g>
            <g transform="matrix(0,1,1,0,41.1358,3.8631)">
                <path d="M-1.136,-9.137L5.097,-9.137C6.48,-6.651 8.041,-3.755 9.137,-1.136L3.137,-1.136C1.799,-4.056 0.212,-6.944 -1.136,-9.137" style="fill:rgb(48,161,203);fill-rule:nonzero;"/>
            </g>
            <g transform="matrix(1,0,0,1,57.92,53.99)">
                <path d="M0,-36.99L0,-36.58C-0.02,-35.19 -0.08,-33.67 -0.2,-32.04L-0.2,-31.97C-0.24,-31.44 -0.29,-30.9 -0.34,-30.34C-0.88,-24.87 -1.38,-19.63 -3.88,-13.87C-3.93,-13.75 -3.98,-13.64 -4.03,-13.52C-4.29,-12.95 -4.57,-12.37 -4.86,-11.78C-5.38,-10.77 -5.92,-9.81 -6.48,-8.91C-7.14,-7.85 -7.82,-6.88 -8.5,-5.98C-8.95,-5.38 -9.4,-4.83 -9.84,-4.3C-11,-2.92 -12.12,-1.78 -13.11,-0.85C-13.57,-0.42 -14.01,-0.03 -14.39,0.31C-14.74,0.62 -15.06,0.89 -15.34,1.12C-16.14,1.81 -16.94,2.43 -17.72,3C-18.68,3.72 -19.63,4.36 -20.54,4.93C-22.5,6.16 -24.41,7.31 -25.92,8L-25.92,1.01L-20.92,1.01L-20.92,-2.99L-17.92,-2.99L-17.92,-8.99L-12.92,-8.99L-12.92,-12.99L-7.92,-12.99L-7.92,-32.99L-12.92,-32.99L-12.92,-36.99L-17.92,-36.99L-17.92,-40.99L-13.92,-40.99L-13.92,-44.99C-12.322,-44.451 -10.428,-43.99 -8.92,-43.683L-8.92,-36.99L-4.92,-36.99L-4.91,-42.6C-3.43,-42.25 -2.02,-41.97 -0.7,-41.74C-0.36,-41.68 -0.1,-41.39 -0.08,-41.04C-0.02,-39.86 0.02,-38.5 0,-36.99" style="fill:rgb(48,161,203);fill-rule:nonzero;"/>
            </g>
            <g transform="matrix(-1,0,0,1,71,29.003)">
                <rect x="33" y="15.001" width="5" height="4.995" style="fill:rgb(48,161,203);"/>
            </g>
            <g transform="matrix(1,0,0,1,15.0049,48.4286)">
                <path d="M0,-32.138L-0.003,-29.433L3.994,-29.429L3.995,-33.429C4.601,-33.711 5.464,-34.155 5.995,-34.429L5.995,-31.429L9.995,-31.429L9.995,-36.429C12.424,-37.582 14.909,-38.554 16.994,-39.469L16.994,-45.701C13.971,-43.846 10.255,-41.868 5.858,-40.13C0.615,-38.06 -4.207,-36.871 -8.205,-36.179C-8.548,-36.118 -8.804,-35.831 -8.825,-35.482C-8.886,-34.227 -8.922,-32.776 -8.907,-31.162C-8.886,-29.25 -8.794,-27.108 -8.563,-24.776C-7.969,-18.662 -7.4,-12.815 -4.043,-6.219C-0.512,0.72 4.249,4.835 6.432,6.685C10.337,9.996 14.206,12.292 16.994,13.563L16.994,6.571L11.995,6.571L11.995,1.571L6.995,1.571L6.995,-3.429L3.995,-3.429L3.995,-9.429L-1.005,-9.429L-1.005,-14.429L-3.005,-14.429L-3.005,-21.429L0.995,-21.429L0.995,-26.429L-3.024,-26.423L-3.017,-31.31L0,-32.138Z" style="fill:rgb(1,44,71);fill-rule:nonzero;"/>
            </g>
            <g transform="matrix(-1,0,0,1,33,-1)">
                <rect x="14" y="30" width="5" height="5" style="fill:rgb(1,44,71);"/>
            </g>
            <g transform="matrix(1,0,0,1,57.92,22)">
                <path d="M0,-5L0,-4.59C-0.02,-3.2 -0.08,-1.68 -0.2,-0.05L-0.2,0L-4.92,0L-4.92,-5L0,-5Z" style="fill:rgb(118,205,226);fill-rule:nonzero;"/>
            </g>
            <g transform="matrix(-1,0,0,1,58.999,41)">
                <rect x="27" y="9" width="4.999" height="5" style="fill:rgb(48,161,203);"/>
            </g>
            <g transform="matrix(-1,0,0,1,49,31)">
                <rect x="22" y="14" width="5" height="5" style="fill:rgb(48,161,203);"/>
            </g>
            <g transform="matrix(-1,0,0,1,105,-7)">
                <rect x="50" y="33" width="5" height="5" style="fill:rgb(118,205,226);"/>
            </g>
            <g transform="matrix(-1,0,0,1,95,-7)">
                <rect x="45" y="33" width="5" height="5" style="fill:rgb(48,161,203);"/>
            </g>
            <g transform="matrix(-1,0,0,1,95,13)">
                <rect x="45" y="23" width="5" height="5" style="fill:rgb(118,205,226);"/>
            </g>
            <g transform="matrix(1,0,0,1,0,15)">
                <rect x="21" y="22" width="5" height="5" style="fill:rgb(48,161,203);"/>
            </g>
            <g transform="matrix(1,0,0,1,0,3)">
                <rect x="38" y="28" width="5" height="5" style="fill:rgb(48,161,203);"/>
            </g>
        </g>
        <g transform="matrix(1,0,0,1,0.5,0)">
            <g opacity="0.7">
                <g transform="matrix(-1,0,0,1,186,24)">
                    <rect x="14" y="30" width="5" height="5" style="fill:rgb(1,44,71);"/>
                </g>
                <g transform="matrix(-1,0,0,1,161.5,-14.0421)">
                    <rect x="14" y="30" width="5" height="5" style="fill:rgb(1,44,71);"/>
                </g>
                <g transform="matrix(-1,0,0,1,102.5,-21.5421)">
                    <rect x="14" y="30" width="5" height="5" style="fill:rgb(1,44,71);"/>
                </g>
                <g transform="matrix(1,0,0,1,77.5,-17.0421)">
                    <rect x="38" y="28" width="5" height="5" style="fill:rgb(48,161,203);"/>
                </g>
                <g transform="matrix(1,0,0,1,87.5,25)">
                    <rect x="38" y="28" width="5" height="5" style="fill:rgb(48,161,203);"/>
                </g>
                <g transform="matrix(1,0,0,1,170,25)">
                    <rect x="38" y="28" width="5" height="5" style="fill:rgb(48,161,203);"/>
                </g>
                <g transform="matrix(1,0,0,1,161,-14.5421)">
                    <rect x="38" y="28" width="5" height="5" style="fill:rgb(48,161,203);"/>
                </g>
                <g transform="matrix(1,0,0,1,124.5,-19.5421)">
                    <rect x="38" y="28" width="5" height="5" style="fill:rgb(48,161,203);"/>
                </g>
                <g transform="matrix(1,0,0,1,50.5,15.0421)">
                    <rect x="38" y="28" width="5" height="5" style="fill:rgb(48,161,203);"/>
                </g>
                <g transform="matrix(1,0,0,1,197.5,-12.0421)">
                    <rect x="38" y="28" width="5" height="5" style="fill:rgb(48,161,203);"/>
                </g>
            </g>
        </g>
    </g>
</svg>
