<?xml version="1.0" encoding="UTF-8" standalone="no"?>
<!DOCTYPE svg PUBLIC "-//W3C//DTD SVG 1.1//EN" "http://www.w3.org/Graphics/SVG/1.1/DTD/svg11.dtd">
<svg width="100%" height="100%" viewBox="0 0 256 64" version="1.1" xmlns="http://www.w3.org/2000/svg"
     xml:space="preserve"
     style="fill-rule:evenodd;clip-rule:evenodd;stroke-linejoin:round;stroke-miterlimit:2;">
    <rect id="Background" x="0" y="0" width="256" height="64" style="fill:#fff;"/>
    <g id="Logo">
        <g>
            <g>
                <path
                    d="M79.895,36.052L79.895,47.635L76.02,47.635L76.02,18.01L86.937,18.01C90.187,18.01 92.687,18.843 94.562,20.51C96.395,22.135 97.312,24.343 97.312,27.052C97.312,29.927 96.395,32.135 94.603,33.718C92.812,35.26 90.228,36.052 86.895,36.052L79.895,36.052ZM79.895,32.843L86.937,32.843C89.02,32.843 90.603,32.343 91.728,31.385C92.853,30.385 93.395,28.968 93.395,27.093C93.395,25.343 92.853,23.927 91.728,22.885C90.603,21.802 89.103,21.26 87.145,21.218L79.895,21.218L79.895,32.843Z"
                    style="fill-rule:nonzero;"/>
            </g>
            <g>
                <path
                    d="M105.806,47.635L102.014,47.635L102.014,25.635L105.806,25.635L105.806,47.635ZM101.722,19.802C101.722,19.177 101.889,18.677 102.264,18.218C102.639,17.802 103.181,17.593 103.931,17.593C104.681,17.593 105.222,17.802 105.597,18.218C105.972,18.677 106.181,19.177 106.181,19.802C106.181,20.385 105.972,20.885 105.597,21.302C105.222,21.718 104.681,21.927 103.931,21.927C103.181,21.927 102.639,21.718 102.264,21.302C101.889,20.885 101.722,20.385 101.722,19.802Z"
                    style="fill-rule:nonzero;"/>
            </g>
            <g>
                <path
                    d="M119.209,33.677L124.084,25.635L128.459,25.635L121.25,36.51L128.709,47.635L124.334,47.635L119.25,39.385L114.167,47.635L109.792,47.635L117.209,36.51L110,25.635L114.375,25.635L119.209,33.677Z"
                    style="fill-rule:nonzero;"/>
            </g>
            <g>
                <path
                    d="M141.202,48.052C138.202,48.052 135.786,47.052 133.911,45.093C132.036,43.135 131.077,40.51 131.077,37.218L131.077,36.552C131.077,34.343 131.494,32.427 132.327,30.718C133.161,28.968 134.327,27.635 135.827,26.677C137.327,25.718 138.952,25.218 140.702,25.218C143.577,25.218 145.786,26.177 147.411,28.052C148.994,29.927 149.786,32.635 149.786,36.135L149.786,37.718L134.869,37.718C134.911,39.885 135.536,41.635 136.744,42.968C137.994,44.302 139.536,44.968 141.369,44.968C142.702,44.968 143.827,44.718 144.786,44.177C145.702,43.593 146.494,42.885 147.202,42.01L149.494,43.802C147.661,46.635 144.869,48.052 141.202,48.052ZM140.702,28.302C139.202,28.302 137.911,28.843 136.911,29.968C135.869,31.052 135.244,32.635 134.994,34.593L145.994,34.593L145.994,34.343C145.911,32.427 145.369,30.927 144.452,29.885C143.536,28.843 142.286,28.302 140.702,28.302Z"
                    style="fill-rule:nonzero;"/>
            </g>
            <g>
                <rect x="154.443" y="16.385" width="3.75" height="31.25"/>
            </g>
            <g>
                <path
                    d="M173.555,34.427C170.222,33.468 167.763,32.302 166.222,30.885C164.722,29.468 163.972,27.76 163.972,25.677C163.972,23.343 164.888,21.427 166.763,19.885C168.597,18.385 171.055,17.593 174.013,17.593C176.055,17.593 177.888,18.01 179.472,18.802C181.055,19.552 182.305,20.677 183.18,22.052C184.055,23.427 184.472,24.927 184.472,26.593L180.555,26.593C180.555,24.802 179.972,23.385 178.847,22.343C177.722,21.343 176.097,20.802 174.013,20.802C172.097,20.802 170.597,21.26 169.513,22.093C168.43,22.927 167.888,24.135 167.888,25.635C167.888,26.843 168.43,27.843 169.43,28.677C170.472,29.51 172.222,30.26 174.68,30.968C177.138,31.677 179.055,32.427 180.43,33.26C181.847,34.093 182.847,35.052 183.513,36.177C184.222,37.302 184.555,38.593 184.555,40.093C184.555,42.51 183.597,44.427 181.722,45.885C179.847,47.302 177.347,48.052 174.222,48.052C172.18,48.052 170.305,47.635 168.513,46.885C166.763,46.093 165.388,45.01 164.43,43.677C163.513,42.302 163.013,40.76 163.013,39.052L166.93,39.052C166.93,40.843 167.597,42.26 168.93,43.302C170.263,44.343 172.013,44.843 174.222,44.843C176.305,44.843 177.888,44.427 178.972,43.593C180.055,42.76 180.597,41.593 180.597,40.135C180.597,38.677 180.097,37.593 179.097,36.802C178.055,35.968 176.222,35.218 173.555,34.427Z"
                    style="fill-rule:nonzero;"/>
            </g>
            <g>
                <path
                    d="M202.566,47.635C202.316,47.218 202.149,46.427 202.024,45.302C200.274,47.135 198.191,48.052 195.732,48.052C193.566,48.052 191.816,47.427 190.399,46.218C189.024,44.968 188.316,43.427 188.316,41.552C188.316,39.26 189.191,37.468 190.941,36.177C192.691,34.927 195.149,34.302 198.274,34.302L201.941,34.302L201.941,32.552C201.941,31.26 201.566,30.177 200.774,29.427C199.982,28.635 198.816,28.26 197.316,28.26C195.941,28.26 194.816,28.593 193.941,29.26C193.024,29.927 192.566,30.76 192.566,31.718L188.774,31.718C188.774,30.635 189.149,29.552 189.941,28.552C190.732,27.51 191.774,26.718 193.107,26.093C194.441,25.51 195.941,25.218 197.524,25.218C200.066,25.218 202.024,25.843 203.482,27.135C204.899,28.385 205.649,30.135 205.732,32.343L205.732,42.468C205.732,44.51 205.982,46.135 206.482,47.302L206.482,47.635L202.566,47.635ZM196.316,44.76C197.482,44.76 198.607,44.468 199.649,43.843C200.732,43.26 201.482,42.427 201.941,41.468L201.941,36.968L199.024,36.968C194.399,36.968 192.107,38.302 192.107,41.01C192.107,42.177 192.482,43.093 193.274,43.76C194.066,44.427 195.066,44.76 196.316,44.76Z"
                    style="fill-rule:nonzero;"/>
            </g>
            <g>
                <path
                    d="M213.48,47.635L213.48,28.552L209.98,28.552L209.98,25.635L213.48,25.635L213.48,23.343C213.48,21.01 214.105,19.177 215.355,17.885C216.605,16.593 218.397,15.968 220.73,15.968C221.563,15.968 222.438,16.093 223.313,16.302L223.105,19.343C222.438,19.218 221.772,19.177 221.063,19.177C219.855,19.177 218.897,19.51 218.23,20.26C217.563,20.968 217.23,21.968 217.23,23.302L217.23,25.635L221.938,25.635L221.938,28.552L217.23,28.552L217.23,47.635L213.48,47.635Z"
                    style="fill-rule:nonzero;"/>
            </g>
            <g>
                <path
                    d="M234.749,48.052C231.749,48.052 229.332,47.052 227.457,45.093C225.582,43.135 224.624,40.51 224.624,37.218L224.624,36.552C224.624,34.343 225.04,32.427 225.874,30.718C226.707,28.968 227.874,27.635 229.374,26.677C230.874,25.718 232.499,25.218 234.249,25.218C237.124,25.218 239.332,26.177 240.957,28.052C242.54,29.927 243.332,32.635 243.332,36.135L243.332,37.718L228.415,37.718C228.457,39.885 229.082,41.635 230.29,42.968C231.54,44.302 233.082,44.968 234.915,44.968C236.249,44.968 237.374,44.718 238.332,44.177C239.249,43.593 240.04,42.885 240.749,42.01L243.04,43.802C241.207,46.635 238.415,48.052 234.749,48.052ZM234.249,28.302C232.749,28.302 231.457,28.843 230.457,29.968C229.415,31.052 228.79,32.635 228.54,34.593L239.54,34.593L239.54,34.343C239.457,32.427 238.915,30.927 237.999,29.885C237.082,28.843 235.832,28.302 234.249,28.302Z"
                    style="fill-rule:nonzero;"/>
            </g>
        </g>
        <g id="Icon">
            <g>
                <path
                    d="M37,38L33,38L33.81,33.53C32.91,33.1 32.35,32.2 32.35,31.14C32.35,29.66 33.5,28.44 34.97,28.44C36.45,28.44 37.65,29.64 37.65,31.12C37.65,32.16 37.06,33.06 36.19,33.5L37,38ZM44.39,25L25.64,25C24.76,25 24.01,25.74 24.01,26.62L24,27L24,42L46,42L46,27L45.99,26.53C45.99,25.65 45.27,25 44.39,25"
                    style="fill:#012c47;fill-rule:nonzero;"/>
            </g>
            <g>
                <path
                    d="M42,22.346L42,25L39,25L39,22C39,19.834 37.172,18.454 35.016,18.454C32.859,18.454 31,19.834 31,22L31,25L28,25L28.01,22.346C28.01,18.496 31.166,15.372 35.016,15.372C36.941,15.372 38.687,16.151 39.949,17.413C41.211,18.675 42,20.421 42,22.346"
                    style="fill:#012c47;fill-rule:nonzero;"/>
            </g>
            <g>
                <path
                    d="M34.999,2.727L34.999,8.96C37.485,10.343 40.381,11.904 43,13L43,7C40.08,5.662 37.192,4.075 34.999,2.727"
                    style="fill:#30a1cb;fill-rule:nonzero;"/>
            </g>
            <g>
                <path
                    d="M42,51L44,51L44,46L50,46L50,41L54,41L54,21L48,21L48,17L43,17L43,13L47,13L47,9C48.598,9.539 50.492,10 52,10.307L52,17L56,17L56.01,11.39C57.49,11.74 58.9,12.02 60.22,12.25C60.56,12.31 60.82,12.6 60.84,12.95C60.9,14.13 60.94,15.49 60.92,17L60.92,17.41C60.9,18.8 60.84,20.32 60.72,21.95L60.72,22.02C60.68,22.55 60.63,23.09 60.58,23.65C60.04,29.12 59.54,34.36 57.04,40.12C56.99,40.24 56.94,40.35 56.89,40.47C56.63,41.04 56.35,41.62 56.06,42.21C55.54,43.22 55,44.18 54.44,45.08C53.78,46.14 53.1,47.11 52.42,48.01C51.97,48.61 51.52,49.16 51.08,49.69C49.92,51.07 48.8,52.21 47.81,53.14C47.35,53.57 46.91,53.96 46.53,54.3C46.18,54.61 45.86,54.88 45.58,55.11C44.78,55.8 43.98,56.42 43.2,56.99C42.24,57.71 41.29,58.35 40.38,58.92C38.42,60.15 36.51,61.3 35,61.99L35,55L40,55L40,52L37,52L37,47L42,47L42,51Z"
                    style="fill:#30a1cb;"/>
            </g>
            <g>
                <path
                    d="M18.005,16.291L18.002,18.996L21.999,19L22,15C22.606,14.718 23.469,14.274 24,14L24,16L28,16L28,12C30.429,10.847 32.914,9.875 34.999,8.96L34.999,2.728C31.976,4.583 28.26,6.561 23.863,8.299C18.62,10.369 13.798,11.558 9.8,12.25C9.457,12.311 9.201,12.598 9.18,12.947C9.119,14.202 9.083,15.653 9.098,17.267C9.119,19.179 9.211,21.321 9.442,23.653C10.036,29.767 10.605,35.614 13.962,42.21C17.493,49.149 22.254,53.264 24.437,55.114C28.342,58.425 32.211,60.721 34.999,61.992L34.999,55L31,55L31,52L26,52L26,46L20,46L20,40L17,40L17,34L14,34L14,27L20,27L20,22L14.981,22.006L14.988,17.119L18.005,16.291Z"
                    style="fill:#012c47;fill-rule:nonzero;"/>
            </g>
            <g>
                <rect x="15" y="30.495" width="5" height="5" style="fill:#012c47;"/>
            </g>
            <g>
                <path d="M60.92,17L60.92,17.41C60.9,18.8 60.84,20.32 60.72,21.95L60.72,22L56,22L56,17L60.92,17Z"
                      style="fill:#76cde2;fill-rule:nonzero;"/>
            </g>
            <g>
                <rect x="30.989" y="52" width="4.01" height="4" style="fill:#30a1cb;"/>
            </g>
            <g>
                <rect x="54" y="27" width="4" height="5" style="fill:#76cde2;"/>
            </g>
            <g>
                <rect x="50" y="27" width="4" height="5" style="fill:#30a1cb;"/>
            </g>
            <g>
                <rect x="50" y="37" width="4" height="4" style="fill:#76cde2;"/>
                <rect x="28" y="46" width="4" height="4" style="fill:#76cde2;"/>
            </g>
            <g>
                <rect x="24" y="37" width="5" height="5" style="fill:#30a1cb;"/>
            </g>
            <g>
                <rect x="41" y="32" width="5" height="5" style="fill:#30a1cb;"/>
            </g>
        </g>
        <g opacity="0.7">
            <g>
                <rect x="167.5" y="54" width="5" height="5" style="fill:#012c47;"/>
            </g>
            <g>
                <rect x="143" y="15.958" width="5" height="5" style="fill:#012c47;"/>
            </g>
            <g>
                <rect x="84" y="8.458" width="5" height="5" style="fill:#012c47;"/>
            </g>
            <g>
                <rect x="116" y="10.958" width="5" height="5" style="fill:#30a1cb;"/>
            </g>
            <g>
                <rect x="126" y="53" width="5" height="5" style="fill:#30a1cb;"/>
            </g>
            <g>
                <rect x="208.5" y="53" width="5" height="5" style="fill:#30a1cb;"/>
            </g>
            <g>
                <rect x="199.5" y="13.458" width="5" height="5" style="fill:#30a1cb;"/>
            </g>
            <g>
                <rect x="163" y="8.458" width="5" height="5" style="fill:#30a1cb;"/>
            </g>
            <g>
                <rect x="89" y="46.042" width="5" height="5" style="fill:#30a1cb;"/>
            </g>
            <g>
                <rect x="236" y="15.958" width="5" height="5" style="fill:#30a1cb;"/>
            </g>
        </g>
    </g>
</svg>
